<svg width="32" height="34" viewBox="0 0 32 34" fill="none" xmlns="http://www.w3.org/2000/svg">
<rect y="2" width="32" height="32" rx="5" fill="#0B1215"/>
<path d="M13.6441 24.12C12.8841 24.12 12.2508 23.86 11.7441 23.34C11.2375 22.82 10.9841 22.0067 10.9841 20.9C10.9841 19.9133 11.1775 18.88 11.5641 17.8C11.9641 16.7067 12.5508 15.7867 13.3241 15.04C14.1108 14.28 15.0441 13.9 16.1241 13.9C16.6708 13.9 17.0775 13.9933 17.3441 14.18C17.6108 14.3667 17.7441 14.6133 17.7441 14.92V15L18.7241 10.4L21.6841 10L19.3841 20.8C19.3308 21 19.3041 21.1933 19.3041 21.38C19.3041 21.9133 19.5775 22.18 20.1241 22.18C20.3641 22.18 20.5775 22.14 20.7641 22.06C20.7108 22.7267 20.4708 23.24 20.0441 23.6C19.6308 23.9467 19.1375 24.12 18.5641 24.12C18.0308 24.12 17.5775 23.9867 17.2041 23.72C16.8441 23.44 16.6041 23.02 16.4841 22.46C15.6841 23.5667 14.7375 24.12 13.6441 24.12ZM14.9441 22.18C15.2375 22.18 15.5308 22.0533 15.8241 21.8C16.1308 21.5467 16.3575 21.1933 16.5041 20.74L16.5841 20.42L17.5641 15.84C17.4441 15.3733 17.1708 15.14 16.7441 15.14C16.2108 15.14 15.7308 15.4533 15.3041 16.08C14.8775 16.6933 14.5441 17.44 14.3041 18.32C14.0641 19.1867 13.9441 19.9533 13.9441 20.62C13.9441 21.2867 14.0375 21.7133 14.2241 21.9C14.4241 22.0867 14.6641 22.18 14.9441 22.18Z" fill="white"/>
</svg>
